<?xml version="1.0" encoding="UTF-8" standalone="no"?>
<svg
   width="24"
   height="23"
   viewBox="0 0 24 23"
   fill="none"
   version="1.1"
   id="svg20"
   sodipodi:docname="scrollbar-left-deactivate.svg"
   inkscape:version="1.4.2 (ebf0e940, 2025-05-08)"
   xmlns:inkscape="http://www.inkscape.org/namespaces/inkscape"
   xmlns:sodipodi="http://sodipodi.sourceforge.net/DTD/sodipodi-0.dtd"
   xmlns="http://www.w3.org/2000/svg"
   xmlns:svg="http://www.w3.org/2000/svg">
  <defs
     id="defs20" />
  <sodipodi:namedview
     id="namedview20"
     pagecolor="#ffffff"
     bordercolor="#000000"
     borderopacity="0.25"
     inkscape:showpageshadow="2"
     inkscape:pageopacity="0.0"
     inkscape:pagecheckerboard="0"
     inkscape:deskcolor="#d1d1d1"
     inkscape:zoom="13.712884"
     inkscape:cx="17.574713"
     inkscape:cy="7.0371775"
     inkscape:window-width="1440"
     inkscape:window-height="900"
     inkscape:window-x="0"
     inkscape:window-y="0"
     inkscape:window-maximized="0"
     inkscape:current-layer="svg20" />
  <rect
     x="0.8125"
     y="22.1875"
     width="21"
     height="22.375"
     transform="rotate(-90,0.8125,22.1875)"
     fill="#ffffff"
     stroke="#000000"
     id="rect1"
     style="display:inline" />
  <rect
     width="20"
     height="2"
     transform="matrix(0,-1,-1,0,23.3125,21.6875)"
     fill="#000000"
     id="rect2"
     x="0"
     y="0"
     style="display:inline" />
  <rect
     width="5.5"
     height="1.375"
     transform="matrix(0,-1,-1,0,12.6875,21.3125)"
     fill="#000000"
     id="rect3"
     x="0"
     y="0"
     style="display:inline;fill:#cccccc" />
  <rect
     width="6.875"
     height="1.375"
     transform="matrix(0,-1,-1,0,18.1875,15.8125)"
     fill="#000000"
     id="rect4"
     x="0"
     y="0"
     style="display:inline;fill:#cccccc" />
  <rect
     width="5.5"
     height="1.375"
     transform="matrix(-1 0 0 1 18.1875 15.8125)"
     fill="black"
     id="rect5"
     style="fill:#cccccc" />
  <rect
     width="1.375"
     height="1.375"
     transform="matrix(-1 0 0 1 5.8125 13.0625)"
     fill="black"
     id="rect6"
     style="fill:#cccccc" />
  <rect
     width="1.375"
     height="1.375"
     transform="matrix(-1 0 0 1 4.4375 11.6875)"
     fill="black"
     id="rect7"
     style="fill:#cccccc" />
  <rect
     width="1.375"
     height="1.375"
     transform="matrix(-1 0 0 1 12.6875 3.4375)"
     fill="black"
     id="rect8"
     style="fill:#cccccc" />
  <rect
     width="1.375"
     height="1.375"
     transform="matrix(-1 0 0 1 11.3125 4.8125)"
     fill="black"
     id="rect9"
     style="fill:#cccccc" />
  <rect
     width="1.375"
     height="1.375"
     transform="matrix(-1 0 0 1 9.9375 6.1875)"
     fill="black"
     id="rect10"
     style="fill:#cccccc" />
  <rect
     width="1.375"
     height="1.375"
     transform="matrix(-1 0 0 1 8.5625 7.5625)"
     fill="black"
     id="rect11"
     style="fill:#cccccc" />
  <rect
     width="1.375"
     height="1.375"
     transform="matrix(-1 0 0 1 7.1875 8.9375)"
     fill="black"
     id="rect12"
     style="fill:#cccccc" />
  <rect
     width="1.375"
     height="1.375"
     transform="matrix(-1 0 0 1 5.8125 10.3125)"
     fill="black"
     id="rect13"
     style="fill:#cccccc" />
  <rect
     width="1.375"
     height="1.375"
     transform="matrix(-1 0 0 1 7.1875 14.4375)"
     fill="black"
     id="rect14"
     style="fill:#cccccc" />
  <rect
     width="1.375"
     height="1.375"
     transform="matrix(-1 0 0 1 8.5625 15.8125)"
     fill="black"
     id="rect15"
     style="fill:#cccccc" />
  <rect
     width="1.375"
     height="1.375"
     transform="matrix(-1 0 0 1 9.9375 17.1875)"
     fill="black"
     id="rect16"
     style="fill:#cccccc" />
  <rect
     width="1.375"
     height="1.375"
     transform="matrix(-1 0 0 1 11.3125 18.5625)"
     fill="black"
     id="rect17"
     style="fill:#cccccc" />
  <rect
     width="1.375"
     height="1.375"
     transform="matrix(-1 0 0 1 12.6875 19.9375)"
     fill="black"
     id="rect18"
     style="fill:#cccccc" />
  <rect
     width="5.5"
     height="1.375"
     transform="matrix(-1 0 0 1 18.1875 7.5625)"
     fill="black"
     id="rect19"
     style="fill:#cccccc" />
  <rect
     width="5.5"
     height="1.375"
     transform="matrix(0 -1 -1 0 12.6875 8.9375)"
     fill="black"
     id="rect20"
     style="fill:#cccccc" />
</svg>
